/* XPM */
static char * mozicon16_xpm[] = {
"16 16 86 1",
" 	c None",
".	c #B32B2B",
"+	c #B83838",
"@	c #BE4A4A",
"#	c #B12323",
"$	c #C45B5B",
"%	c #DFA6A6",
"&	c #D17D7D",
"*	c #BF4A4A",
"=	c #B22828",
"-	c #DD9F9F",
";	c #BF4C4C",
">	c #B22626",
",	c #C86565",
"'	c #A90E0E",
")	c #A90D0D",
"!	c #A80B0B",
"~	c #A70808",
"{	c #AC1717",
"]	c #A60707",
"^	c #E3B1B1",
"/	c #FFFFFF",
"(	c #C15050",
"_	c #AE1B1B",
":	c #AD1A1A",
"<	c #AC1616",
"[	c #A90F0F",
"}	c #AE1C1C",
"|	c #AA1212",
"1	c #BF4B4B",
"2	c #D89292",
"3	c #EED1D1",
"4	c #E9C0C0",
"5	c #B02323",
"6	c #A50202",
"7	c #B22727",
"8	c #B63232",
"9	c #F5E2E2",
"0	c #F4E1E1",
"a	c #D89191",
"b	c #C04F4F",
"c	c #E0A7A7",
"d	c #B53030",
"e	c #B93C3C",
"f	c #BD4646",
"g	c #D28181",
"h	c #E4B4B4",
"i	c #D28080",
"j	c #B83737",
"k	c #BC4444",
"l	c #C15151",
"m	c #C55D5D",
"n	c #E5B5B5",
"o	c #FAF2F2",
"p	c #BE4B4B",
"q	c #B32A2A",
"r	c #B83939",
"s	c #BE4848",
"t	c #C35757",
"u	c #CA6A6A",
"v	c #DEA2A2",
"w	c #E6B7B7",
"x	c #FBF3F3",
"y	c #BF4D4D",
"z	c #C15252",
"A	c #C25353",
"B	c #D68B8B",
"C	c #E5B7B7",
"D	c #B93939",
"E	c #D38282",
"F	c #BA3E3E",
"G	c #F3DFDF",
"H	c #DA9898",
"I	c #C45959",
"J	c #DFA8A8",
"K	c #C25454",
"L	c #D99595",
"M	c #F0D5D5",
"N	c #EAC5C5",
"O	c #C35656",
"P	c #C55B5B",
"Q	c #B12626",
"R	c #DDA0A0",
"S	c #B63131",
"T	c #CB6E6E",
"U	c #AF1D1D",
"     .+@@+.     ",
"   #$%&**&%$#   ",
"  =-;>,')!~;-=  ",
" #-{]^/(_:<[}-# ",
" $;]|1234=5_|($ ",
".%6[_7890ab7_[c.",
"+&~<5defg/h85<i+",
"@*!:=jklm-nop:l@",
"@*)_qrstuvwxy_z@",
"+&!:=jkAB/CD=:E+",
".%~<5dF0GHId5<J.",
" $;[_KLMNjd7_O$ ",
" #-}|n/Pq=5_QR# ",
"  =-(STU_:<OR=  ",
"   #$cilzEJ$#   ",
"     .+@@+.     "};
